<mxfile host="app.diagrams.net" agent="Mozilla/5.0 (Windows NT 10.0; Win64; x64) AppleWebKit/537.36 (KHTML, like Gecko) Chrome/129.0.0.0 Safari/537.36" version="24.7.17" pages="2">
  <diagram name="Page-1" id="amORR1UAQAAutwsOT3tN">
    <mxGraphModel dx="1290" dy="563" grid="1" gridSize="10" guides="1" tooltips="1" connect="1" arrows="1" fold="1" page="1" pageScale="1" pageWidth="850" pageHeight="1100" math="0" shadow="0">
      <root>
        <mxCell id="0" />
        <mxCell id="1" parent="0" />
        <mxCell id="Q4h5YGl_CawJlgQXMVtK-1" value="Admin" style="shape=umlActor;verticalLabelPosition=bottom;verticalAlign=top;html=1;outlineConnect=0;" parent="1" vertex="1">
          <mxGeometry x="60" y="300" width="30" height="60" as="geometry" />
        </mxCell>
        <mxCell id="Q4h5YGl_CawJlgQXMVtK-13" value="Thêm user vào nhóm" style="ellipse;whiteSpace=wrap;html=1;" parent="1" vertex="1">
          <mxGeometry x="420" y="320" width="110" height="60" as="geometry" />
        </mxCell>
        <mxCell id="Q4h5YGl_CawJlgQXMVtK-14" value="&amp;lt;&amp;lt;extend&amp;gt;&amp;gt;" style="endArrow=open;endSize=12;dashed=1;html=1;rounded=0;strokeColor=default;align=center;verticalAlign=middle;fontFamily=Helvetica;fontSize=11;fontColor=default;labelBackgroundColor=default;edgeStyle=none;" parent="1" source="Q4h5YGl_CawJlgQXMVtK-15" target="Q4h5YGl_CawJlgQXMVtK-13" edge="1">
          <mxGeometry width="160" relative="1" as="geometry">
            <mxPoint x="494.3953377513469" y="345.3147124294319" as="sourcePoint" />
            <mxPoint x="544" y="201" as="targetPoint" />
            <mxPoint as="offset" />
          </mxGeometry>
        </mxCell>
        <mxCell id="Q4h5YGl_CawJlgQXMVtK-15" value="xem group" style="ellipse;whiteSpace=wrap;html=1;" parent="1" vertex="1">
          <mxGeometry x="260" y="300" width="80" height="60" as="geometry" />
        </mxCell>
        <mxCell id="Q4h5YGl_CawJlgQXMVtK-18" value="Xem thành viên trong nhóm" style="ellipse;whiteSpace=wrap;html=1;" parent="1" vertex="1">
          <mxGeometry x="410" y="240" width="130" height="60" as="geometry" />
        </mxCell>
        <mxCell id="Q4h5YGl_CawJlgQXMVtK-19" value="&amp;lt;&amp;lt;extend&amp;gt;&amp;gt;" style="endArrow=open;endSize=12;dashed=1;html=1;rounded=0;strokeColor=default;align=center;verticalAlign=middle;fontFamily=Helvetica;fontSize=11;fontColor=default;labelBackgroundColor=default;edgeStyle=none;" parent="1" source="Q4h5YGl_CawJlgQXMVtK-15" target="Q4h5YGl_CawJlgQXMVtK-18" edge="1">
          <mxGeometry width="160" relative="1" as="geometry">
            <mxPoint x="500" y="330" as="sourcePoint" />
            <mxPoint x="445" y="139" as="targetPoint" />
            <mxPoint as="offset" />
          </mxGeometry>
        </mxCell>
        <mxCell id="Q4h5YGl_CawJlgQXMVtK-20" value="Tìm kiếm thành viên trong nhóm" style="ellipse;whiteSpace=wrap;html=1;" parent="1" vertex="1">
          <mxGeometry x="422.5" y="410" width="105" height="60" as="geometry" />
        </mxCell>
        <mxCell id="Q4h5YGl_CawJlgQXMVtK-21" value="&amp;lt;&amp;lt;extend&amp;gt;&amp;gt;" style="endArrow=open;endSize=12;dashed=1;html=1;rounded=0;strokeColor=default;align=center;verticalAlign=middle;fontFamily=Helvetica;fontSize=11;fontColor=default;labelBackgroundColor=default;edgeStyle=none;" parent="1" source="Q4h5YGl_CawJlgQXMVtK-15" target="Q4h5YGl_CawJlgQXMVtK-20" edge="1">
          <mxGeometry width="160" relative="1" as="geometry">
            <mxPoint x="486.7585892648981" y="352.2988243874149" as="sourcePoint" />
            <mxPoint x="537" y="405" as="targetPoint" />
            <mxPoint as="offset" />
          </mxGeometry>
        </mxCell>
        <mxCell id="Q4h5YGl_CawJlgQXMVtK-24" value="" style="endArrow=none;html=1;rounded=0;" parent="1" source="Q4h5YGl_CawJlgQXMVtK-1" target="Q4h5YGl_CawJlgQXMVtK-25" edge="1">
          <mxGeometry width="50" height="50" relative="1" as="geometry">
            <mxPoint x="85" y="260" as="sourcePoint" />
            <mxPoint x="300" y="260" as="targetPoint" />
          </mxGeometry>
        </mxCell>
        <mxCell id="Q4h5YGl_CawJlgQXMVtK-25" value="đăng nhập" style="ellipse;whiteSpace=wrap;html=1;" parent="1" vertex="1">
          <mxGeometry x="130" y="300" width="80" height="60" as="geometry" />
        </mxCell>
        <mxCell id="Q4h5YGl_CawJlgQXMVtK-27" value="&amp;lt;&amp;lt;include&amp;gt;&amp;gt;" style="endArrow=open;endSize=12;dashed=1;html=1;rounded=0;strokeColor=default;align=center;verticalAlign=middle;fontFamily=Helvetica;fontSize=11;fontColor=default;labelBackgroundColor=default;edgeStyle=none;" parent="1" source="Q4h5YGl_CawJlgQXMVtK-15" target="Q4h5YGl_CawJlgQXMVtK-25" edge="1">
          <mxGeometry width="160" relative="1" as="geometry">
            <mxPoint x="295" y="135" as="sourcePoint" />
            <mxPoint x="205" y="175" as="targetPoint" />
            <mxPoint as="offset" />
          </mxGeometry>
        </mxCell>
        <mxCell id="tncyR4IIwLqOV78NZ3Gz-3" value="Xóa user&amp;nbsp;&lt;div&gt;khỏi nhóm&lt;/div&gt;" style="ellipse;whiteSpace=wrap;html=1;" vertex="1" parent="1">
          <mxGeometry x="300" y="170" width="110" height="60" as="geometry" />
        </mxCell>
        <mxCell id="tncyR4IIwLqOV78NZ3Gz-4" value="&amp;lt;&amp;lt;extend&amp;gt;&amp;gt;" style="endArrow=open;endSize=12;dashed=1;html=1;rounded=0;strokeColor=default;align=center;verticalAlign=middle;fontFamily=Helvetica;fontSize=11;fontColor=default;labelBackgroundColor=default;edgeStyle=none;" edge="1" parent="1" source="Q4h5YGl_CawJlgQXMVtK-15" target="tncyR4IIwLqOV78NZ3Gz-3">
          <mxGeometry width="160" relative="1" as="geometry">
            <mxPoint x="346" y="327" as="sourcePoint" />
            <mxPoint x="433" y="298" as="targetPoint" />
            <mxPoint as="offset" />
          </mxGeometry>
        </mxCell>
      </root>
    </mxGraphModel>
  </diagram>
  <diagram id="KeQIpuA8Qhgftal75OSh" name="Page-2">
    <mxGraphModel dx="1290" dy="563" grid="1" gridSize="10" guides="1" tooltips="1" connect="1" arrows="1" fold="1" page="1" pageScale="1" pageWidth="850" pageHeight="1100" math="0" shadow="0">
      <root>
        <mxCell id="0" />
        <mxCell id="1" parent="0" />
        <mxCell id="dFkhsY8rGl0RhJJ8wjh6-1" value="Admin" style="shape=umlActor;verticalLabelPosition=bottom;verticalAlign=top;html=1;outlineConnect=0;" vertex="1" parent="1">
          <mxGeometry x="60" y="300" width="30" height="60" as="geometry" />
        </mxCell>
        <mxCell id="dFkhsY8rGl0RhJJ8wjh6-4" value="Xem danh sách chat" style="ellipse;whiteSpace=wrap;html=1;" vertex="1" parent="1">
          <mxGeometry x="280" y="300" width="80" height="60" as="geometry" />
        </mxCell>
        <mxCell id="dFkhsY8rGl0RhJJ8wjh6-5" value="Chọn người dùng để nhắn tin" style="ellipse;whiteSpace=wrap;html=1;" vertex="1" parent="1">
          <mxGeometry x="435" y="360" width="130" height="60" as="geometry" />
        </mxCell>
        <mxCell id="dFkhsY8rGl0RhJJ8wjh6-6" value="&amp;lt;&amp;lt;extend&amp;gt;&amp;gt;" style="endArrow=open;endSize=12;dashed=1;html=1;rounded=0;strokeColor=default;align=center;verticalAlign=middle;fontFamily=Helvetica;fontSize=11;fontColor=default;labelBackgroundColor=default;edgeStyle=none;" edge="1" parent="1" source="dFkhsY8rGl0RhJJ8wjh6-4" target="dFkhsY8rGl0RhJJ8wjh6-5">
          <mxGeometry width="160" relative="1" as="geometry">
            <mxPoint x="500" y="330" as="sourcePoint" />
            <mxPoint x="445" y="139" as="targetPoint" />
            <mxPoint as="offset" />
          </mxGeometry>
        </mxCell>
        <mxCell id="dFkhsY8rGl0RhJJ8wjh6-9" value="" style="endArrow=none;html=1;rounded=0;" edge="1" parent="1" source="dFkhsY8rGl0RhJJ8wjh6-1" target="dFkhsY8rGl0RhJJ8wjh6-10">
          <mxGeometry width="50" height="50" relative="1" as="geometry">
            <mxPoint x="85" y="260" as="sourcePoint" />
            <mxPoint x="300" y="260" as="targetPoint" />
          </mxGeometry>
        </mxCell>
        <mxCell id="dFkhsY8rGl0RhJJ8wjh6-10" value="đăng nhập" style="ellipse;whiteSpace=wrap;html=1;" vertex="1" parent="1">
          <mxGeometry x="130" y="300" width="80" height="60" as="geometry" />
        </mxCell>
        <mxCell id="dFkhsY8rGl0RhJJ8wjh6-11" value="&amp;lt;&amp;lt;include&amp;gt;&amp;gt;" style="endArrow=open;endSize=12;dashed=1;html=1;rounded=0;strokeColor=default;align=center;verticalAlign=middle;fontFamily=Helvetica;fontSize=11;fontColor=default;labelBackgroundColor=default;edgeStyle=none;" edge="1" parent="1" source="dFkhsY8rGl0RhJJ8wjh6-4" target="dFkhsY8rGl0RhJJ8wjh6-10">
          <mxGeometry width="160" relative="1" as="geometry">
            <mxPoint x="295" y="135" as="sourcePoint" />
            <mxPoint x="205" y="175" as="targetPoint" />
            <mxPoint as="offset" />
          </mxGeometry>
        </mxCell>
        <mxCell id="dFkhsY8rGl0RhJJ8wjh6-12" value="Chọn nhóm chat" style="ellipse;whiteSpace=wrap;html=1;" vertex="1" parent="1">
          <mxGeometry x="445" y="270" width="110" height="60" as="geometry" />
        </mxCell>
        <mxCell id="dFkhsY8rGl0RhJJ8wjh6-13" value="&amp;lt;&amp;lt;extend&amp;gt;&amp;gt;" style="endArrow=open;endSize=12;dashed=1;html=1;rounded=0;strokeColor=default;align=center;verticalAlign=middle;fontFamily=Helvetica;fontSize=11;fontColor=default;labelBackgroundColor=default;edgeStyle=none;" edge="1" parent="1" source="dFkhsY8rGl0RhJJ8wjh6-4" target="dFkhsY8rGl0RhJJ8wjh6-12">
          <mxGeometry width="160" relative="1" as="geometry">
            <mxPoint x="346" y="327" as="sourcePoint" />
            <mxPoint x="433" y="298" as="targetPoint" />
            <mxPoint as="offset" />
          </mxGeometry>
        </mxCell>
        <mxCell id="dFkhsY8rGl0RhJJ8wjh6-16" value="Nhắn tin" style="ellipse;whiteSpace=wrap;html=1;" vertex="1" parent="1">
          <mxGeometry x="445" y="440" width="80" height="60" as="geometry" />
        </mxCell>
        <mxCell id="dFkhsY8rGl0RhJJ8wjh6-17" value="&amp;lt;&amp;lt;extend&amp;gt;&amp;gt;" style="endArrow=open;endSize=12;dashed=1;html=1;rounded=0;strokeColor=default;align=center;verticalAlign=middle;fontFamily=Helvetica;fontSize=11;fontColor=default;labelBackgroundColor=default;edgeStyle=none;" edge="1" parent="1" source="dFkhsY8rGl0RhJJ8wjh6-4" target="dFkhsY8rGl0RhJJ8wjh6-16">
          <mxGeometry width="160" relative="1" as="geometry">
            <mxPoint x="367" y="352" as="sourcePoint" />
            <mxPoint x="457" y="382" as="targetPoint" />
            <mxPoint as="offset" />
          </mxGeometry>
        </mxCell>
      </root>
    </mxGraphModel>
  </diagram>
</mxfile>
